<mxfile host="app.diagrams.net" agent="Mozilla/5.0 (Windows NT 10.0; Win64; x64) AppleWebKit/537.36 (KHTML, like Gecko) Chrome/138.0.0.0 Safari/537.36" version="28.0.4">
  <diagram name="Page-1" id="eLbudgUswfX50sZlCfXI">
    <mxGraphModel dx="1042" dy="623" grid="1" gridSize="10" guides="1" tooltips="1" connect="1" arrows="1" fold="1" page="1" pageScale="1" pageWidth="850" pageHeight="1100" math="0" shadow="0">
      <root>
        <mxCell id="0" />
        <mxCell id="1" parent="0" />
        <mxCell id="f7GCSqbPYMpELvl3Li7K-1" value="" style="rounded=0;whiteSpace=wrap;html=1;" parent="1" vertex="1">
          <mxGeometry x="150" y="340" width="650" height="540" as="geometry" />
        </mxCell>
        <mxCell id="f7GCSqbPYMpELvl3Li7K-3" value="------------------------------------" style="text;html=1;align=center;verticalAlign=middle;whiteSpace=wrap;rounded=0;fontSize=50;" parent="1" vertex="1">
          <mxGeometry x="167.5" y="415" width="620" height="30" as="geometry" />
        </mxCell>
        <mxCell id="f7GCSqbPYMpELvl3Li7K-4" value="CHARUSAT Student Dashboard" style="text;html=1;align=center;verticalAlign=middle;whiteSpace=wrap;rounded=0;fontSize=31;" parent="1" vertex="1">
          <mxGeometry x="250" y="355" width="460" height="60" as="geometry" />
        </mxCell>
        <mxCell id="rLQ0RpRwXU3gLZPqAoqE-3" value="&lt;font style=&quot;font-size: 26px;&quot;&gt;&amp;nbsp; &amp;nbsp;Home&amp;nbsp; &amp;nbsp;|&amp;nbsp; &amp;nbsp;Profile&amp;nbsp; &amp;nbsp;|&amp;nbsp; &amp;nbsp;Events&amp;nbsp; &amp;nbsp;|&amp;nbsp; &amp;nbsp;Logout&amp;nbsp; | admin&amp;nbsp;&lt;/font&gt; &amp;nbsp;" style="rounded=1;whiteSpace=wrap;html=1;fontSize=31;fontColor=#66B2FF;" parent="1" vertex="1">
          <mxGeometry x="175" y="450" width="600" height="50" as="geometry" />
        </mxCell>
        <mxCell id="CA1KcW2gcI9o0E45Yo5k-1" value="------------------------------------" style="text;html=1;align=center;verticalAlign=middle;whiteSpace=wrap;rounded=0;fontSize=50;" parent="1" vertex="1">
          <mxGeometry x="165" y="510" width="620" height="30" as="geometry" />
        </mxCell>
        <mxCell id="CA1KcW2gcI9o0E45Yo5k-2" value="&lt;font style=&quot;font-size: 25px;&quot;&gt;Welcome, Charusat dashboard&lt;/font&gt;" style="text;html=1;align=center;verticalAlign=middle;whiteSpace=wrap;rounded=0;fontSize=29;" parent="1" vertex="1">
          <mxGeometry x="170" y="540" width="620" height="40" as="geometry" />
        </mxCell>
        <mxCell id="CA1KcW2gcI9o0E45Yo5k-3" value="Upcoming Events" style="rounded=1;whiteSpace=wrap;html=1;fontSize=21;verticalAlign=top;fontColor=light-dark(#000000,#12FFF7);" parent="1" vertex="1">
          <mxGeometry x="175" y="590" width="185" height="110" as="geometry" />
        </mxCell>
        <mxCell id="CA1KcW2gcI9o0E45Yo5k-4" value="&lt;font style=&quot;color: light-dark(rgb(0, 0, 0), rgb(0, 255, 255));&quot;&gt;Recent Events&lt;/font&gt;" style="rounded=1;whiteSpace=wrap;html=1;fontSize=21;verticalAlign=top;fontColor=light-dark(#808080,#808080);" parent="1" vertex="1">
          <mxGeometry x="580" y="590" width="175" height="110" as="geometry" />
        </mxCell>
        <mxCell id="CA1KcW2gcI9o0E45Yo5k-5" value="&lt;font style=&quot;color: light-dark(rgb(0, 0, 0), rgb(0, 255, 255));&quot;&gt;Quick Links&lt;/font&gt;" style="rounded=1;whiteSpace=wrap;html=1;fontSize=21;verticalAlign=top;fontColor=light-dark(#FF3333,#808080);" parent="1" vertex="1">
          <mxGeometry x="396.25" y="700" width="157.5" height="80" as="geometry" />
        </mxCell>
        <mxCell id="CA1KcW2gcI9o0E45Yo5k-10" value="Upcoming Events Will be Coming Soon" style="text;html=1;align=left;verticalAlign=middle;whiteSpace=wrap;rounded=0;fontSize=15;" parent="1" vertex="1">
          <mxGeometry x="188.75" y="630" width="157.5" height="50" as="geometry" />
        </mxCell>
        <mxCell id="CA1KcW2gcI9o0E45Yo5k-11" value="Recent Events Are DispledHere" style="text;html=1;align=left;verticalAlign=middle;whiteSpace=wrap;rounded=0;fontSize=15;" parent="1" vertex="1">
          <mxGeometry x="600" y="640" width="135" height="40" as="geometry" />
        </mxCell>
        <mxCell id="CA1KcW2gcI9o0E45Yo5k-12" value="Links Are Here" style="text;html=1;align=center;verticalAlign=top;whiteSpace=wrap;rounded=0;fontSize=16;" parent="1" vertex="1">
          <mxGeometry x="420" y="740" width="110" height="50" as="geometry" />
        </mxCell>
        <mxCell id="CA1KcW2gcI9o0E45Yo5k-13" value="Â© 2025 CHARUSAT Student Service" style="text;align=center;verticalAlign=middle;whiteSpace=wrap;rounded=0;html=1;fontSize=26;" parent="1" vertex="1">
          <mxGeometry x="195" y="830" width="565" height="30" as="geometry" />
        </mxCell>
        <mxCell id="CA1KcW2gcI9o0E45Yo5k-14" value="------------------------------------" style="text;html=1;align=center;verticalAlign=middle;whiteSpace=wrap;rounded=0;fontSize=50;" parent="1" vertex="1">
          <mxGeometry x="165" y="790" width="620" height="30" as="geometry" />
        </mxCell>
      </root>
    </mxGraphModel>
  </diagram>
</mxfile>
